<svg width="397" height="73" viewBox="0 0 397 73" fill="none" xmlns="http://www.w3.org/2000/svg">
<path d="M14.656 9.48C16.2773 9.48 17.6427 9.62933 18.752 9.928C19.8613 10.2267 20.8 10.696 21.568 11.336C22.336 11.9333 22.9547 12.7013 23.424 13.64C23.8933 14.5787 24.2987 15.688 24.64 16.968L33.664 41.736H33.92V9.48H43.712V53H26.304L14.528 20.808H14.272V53H4.544V9.48H14.656Z" fill="#E8630A"/>
<path d="M65.544 9.48H73.928C75.336 9.48 76.5947 9.56533 77.704 9.736C78.8133 9.864 79.7733 10.2053 80.584 10.76C81.4373 11.3147 82.1627 12.1253 82.76 13.192C83.4 14.2587 83.9333 15.7093 84.36 17.544L89.864 37.64H90.184L95.368 17.544C95.6667 16.008 96.0293 14.728 96.456 13.704C96.9253 12.68 97.5227 11.8693 98.248 11.272C99.016 10.632 99.976 10.184 101.128 9.928C102.323 9.62933 103.795 9.48 105.544 9.48H114.376V53H104.136V21.832H103.816L95.368 53H84.104L75.528 21.832H75.272V53H65.544V9.48ZM120.745 37C120.745 31.4107 122.281 27.2507 125.353 24.52C128.425 21.7467 132.585 20.36 137.833 20.36C143.123 20.36 147.283 21.7467 150.312 24.52C153.342 27.2507 154.857 31.4107 154.857 37C154.857 42.5467 153.342 46.7067 150.312 49.48C147.283 52.2533 143.123 53.64 137.833 53.64C132.585 53.64 128.425 52.2533 125.353 49.48C122.281 46.7067 120.745 42.5467 120.745 37ZM131.241 37C131.241 39.7307 131.774 41.8853 132.841 43.464C133.95 45.0427 135.614 45.832 137.833 45.832C140.094 45.832 141.758 45.0427 142.825 43.464C143.891 41.8853 144.425 39.7307 144.425 37C144.425 34.2693 143.891 32.1147 142.825 30.536C141.758 28.9573 140.094 28.168 137.833 28.168C135.614 28.168 133.95 28.9573 132.841 30.536C131.774 32.1147 131.241 34.2693 131.241 37ZM157.328 21H168.08L174.416 43.208H174.736L181.008 21H191.312L184.144 45.064C183.802 46.1733 183.418 47.24 182.992 48.264C182.608 49.2453 182.053 50.12 181.328 50.888C180.645 51.6133 179.749 52.2107 178.64 52.68C177.573 53.1067 176.208 53.32 174.544 53.32H167.184L157.328 21ZM195.529 53V21H205.769V53H195.529ZM194.377 12.232C195.23 11.1653 196.233 10.0987 197.385 9.032C198.537 7.92266 199.625 6.984 200.649 6.216C201.673 6.984 202.74 7.92266 203.849 9.032C205.001 10.1413 206.004 11.208 206.857 12.232C206.004 13.256 205.001 14.344 203.849 15.496C202.697 16.6053 201.63 17.5227 200.649 18.248C199.668 17.48 198.58 16.5627 197.385 15.496C196.233 14.3867 195.23 13.2987 194.377 12.232ZM211.995 37C211.995 34.184 212.421 31.7307 213.275 29.64C214.128 27.5493 215.301 25.8213 216.795 24.456C218.331 23.048 220.144 22.024 222.235 21.384C224.325 20.7013 226.608 20.36 229.083 20.36C233.947 20.36 237.68 21.7253 240.283 24.456C242.928 27.1867 244.251 31.2187 244.251 36.552C243.696 37.8747 242.971 39.048 242.075 40.072C237.936 40.072 234.309 40.0507 231.195 40.008C228.08 39.9227 225.221 39.688 222.619 39.304C222.96 41.3093 223.749 42.9093 224.987 44.104C226.224 45.256 228.123 45.832 230.683 45.832C233.2 45.832 235.419 45.704 237.339 45.448C239.301 45.192 240.923 44.8933 242.203 44.552C242.203 45.1067 242.16 45.7467 242.075 46.472C242.032 47.1973 241.947 47.9227 241.819 48.648C241.733 49.3307 241.605 50.0133 241.435 50.696C241.307 51.336 241.157 51.8907 240.987 52.36C239.877 52.7013 238.427 53 236.635 53.256C234.885 53.512 232.901 53.64 230.683 53.64C224.667 53.64 220.037 52.2533 216.795 49.48C213.595 46.7067 211.995 42.5467 211.995 37ZM222.555 35.72C224.603 35.208 226.523 34.8667 228.315 34.696C230.107 34.4827 232.048 34.3547 234.139 34.312C233.925 32.264 233.392 30.728 232.539 29.704C231.685 28.68 230.384 28.168 228.635 28.168C226.8 28.168 225.349 28.8293 224.283 30.152C223.259 31.432 222.683 33.288 222.555 35.72ZM264.044 53V9.48H274.732V26.504H290.156V9.48H300.844V53H290.156V35.72H274.732V53H264.044ZM319.457 21V39.112C319.457 41.416 319.691 43.1227 320.161 44.232C320.63 45.2987 321.59 45.832 323.041 45.832C324.278 45.832 325.323 45.1493 326.177 43.784C327.03 42.4187 327.713 40.6053 328.225 38.344C328.737 36.04 329.099 33.3947 329.313 30.408C329.569 27.3787 329.697 24.2427 329.697 21H339.937V53H329.697V44.04C329.014 45.8747 328.267 47.4107 327.457 48.648C326.689 49.8853 325.835 50.8667 324.897 51.592C324.001 52.3173 323.019 52.8293 321.953 53.128C320.929 53.4693 319.841 53.64 318.689 53.64C317.537 53.64 316.385 53.448 315.233 53.064C314.123 52.68 313.121 52.04 312.225 51.144C311.329 50.2053 310.603 48.9467 310.049 47.368C309.494 45.7893 309.217 43.8267 309.217 41.48V21H319.457ZM357.894 6.92V29.832C358.577 28.04 359.302 26.5467 360.07 25.352C360.881 24.1147 361.734 23.1333 362.63 22.408C363.526 21.64 364.486 21.1067 365.51 20.808C366.534 20.5093 367.601 20.36 368.71 20.36C370.331 20.36 371.739 20.7013 372.934 21.384C374.171 22.0667 375.217 23.0267 376.07 24.264C376.923 25.5013 377.563 26.9947 377.99 28.744C378.417 30.4933 378.63 32.4347 378.63 34.568C378.63 38.1093 378.139 41.096 377.158 43.528C376.219 45.96 374.897 47.9227 373.19 49.416C371.483 50.9093 369.457 51.9973 367.11 52.68C364.763 53.32 362.203 53.64 359.43 53.64C357.467 53.64 355.505 53.576 353.542 53.448C351.622 53.32 349.659 53.1707 347.654 53V6.92H357.894ZM356.87 45.512C357.467 45.5973 358.086 45.6827 358.726 45.768C359.409 45.8107 360.07 45.832 360.71 45.832C363.654 45.832 365.702 45.192 366.854 43.912C368.049 42.5893 368.646 40.712 368.646 38.28C368.646 36.9147 368.561 35.6347 368.39 34.44C368.219 33.2027 367.942 32.1147 367.558 31.176C367.217 30.2373 366.79 29.512 366.278 29C365.766 28.4453 365.19 28.168 364.55 28.168C363.526 28.168 362.609 28.5733 361.798 29.384C361.03 30.1947 360.347 31.3467 359.75 32.84C359.153 34.3333 358.619 36.168 358.15 38.344C357.681 40.4773 357.254 42.8667 356.87 45.512Z" fill="#FCD900"/>
<rect x="4.5" y="59" width="374" height="9" fill="#E8630A"/>
<rect x="4.5" y="53" width="9.8" height="15" fill="#E8630A"/>
</svg>
